<svg width="171" height="67" viewBox="0 0 171 67" fill="none" xmlns="http://www.w3.org/2000/svg">
<g clip-path="url(#clip0_1_8633)">
<rect x="5.12891" y="5.5" width="56" height="56" rx="28" fill="#EEEEEE"/>
<g clip-path="url(#clip1_1_8633)">
<path d="M33.1289 61.5C48.5929 61.5 61.1289 48.964 61.1289 33.5C61.1289 18.036 48.5929 5.5 33.1289 5.5C17.6649 5.5 5.12891 18.036 5.12891 33.5C5.12891 48.964 17.6649 61.5 33.1289 61.5Z" fill="#F0F0F0"/>
<path d="M5.12891 33.5005C5.12891 45.5396 12.7274 55.8027 23.3898 59.759V7.24219C12.7274 11.1983 5.12891 21.4616 5.12891 33.5005Z" fill="#6DA544"/>
<path d="M61.1301 33.5005C61.1301 21.4616 53.5316 11.1983 42.8691 7.24219V59.7591C53.5316 55.8027 61.1301 45.5396 61.1301 33.5005Z" fill="#6DA544"/>
</g>
</g>
<rect x="2.62891" y="3" width="61" height="61" rx="30.5" stroke="white" stroke-width="5"/>
<g clip-path="url(#clip2_1_8633)">
<rect x="31.1289" y="5.5" width="56" height="56" rx="28" fill="#EEEEEE"/>
<g clip-path="url(#clip3_1_8633)">
<path d="M31.1289 33.5C31.1289 36.925 31.745 40.2058 32.8705 43.2391L59.1289 44.4565L85.3873 43.2392C86.5129 40.2058 87.1289 36.925 87.1289 33.5C87.1289 30.075 86.5129 26.7942 85.3873 23.7609L59.1289 22.5435L32.8705 23.7608C31.745 26.7942 31.1289 30.075 31.1289 33.5V33.5Z" fill="#FFDA44"/>
<path d="M59.1285 5.5C47.0895 5.5 36.8263 13.0985 32.8701 23.7609H85.3871C81.4307 13.0985 71.1675 5.5 59.1285 5.5Z" fill="#D80027"/>
<path d="M85.3879 43.2383H32.8711C36.8273 53.9006 47.0905 61.4992 59.1295 61.4992C71.1685 61.4992 81.4317 53.9006 85.3879 43.2383Z" fill="#496E2D"/>
<path d="M59.1288 23.7603L61.546 31.1999H69.3694L63.0406 35.7984L65.4578 43.2384L59.1288 38.6403L52.7998 43.2384L55.2174 35.7984L48.8887 31.1999H56.7116L59.1288 23.7603Z" fill="black"/>
</g>
</g>
<rect x="28.6289" y="3" width="61" height="61" rx="30.5" stroke="white" stroke-width="5"/>
<g clip-path="url(#clip4_1_8633)">
<rect x="57.1289" y="5.5" width="56" height="56" rx="28" fill="#EEEEEE"/>
<g clip-path="url(#clip5_1_8633)">
<path d="M85.1289 61.5C100.593 61.5 113.129 48.964 113.129 33.5C113.129 18.036 100.593 5.5 85.1289 5.5C69.6649 5.5 57.1289 18.036 57.1289 33.5C57.1289 48.964 69.6649 61.5 85.1289 61.5Z" fill="#F0F0F0"/>
<path d="M85.1289 5.5C74.028 5.5 64.4362 11.9602 59.9072 21.3261H110.35C105.822 11.9602 96.2297 5.5 85.1289 5.5Z" fill="black"/>
<path d="M85.1289 61.4995C74.028 61.4995 64.4362 55.0392 59.9072 45.6733H110.35C105.822 55.0392 96.2297 61.4995 85.1289 61.4995Z" fill="#496E2D"/>
<path d="M111.807 24.978H58.4511C57.5934 27.6653 57.1289 30.5282 57.1289 33.4998C57.1289 36.4714 57.5934 39.3343 58.4511 42.0215H111.807C112.664 39.3343 113.129 36.4714 113.129 33.4998C113.129 30.5282 112.664 27.6653 111.807 24.978Z" fill="#A2001D"/>
<path d="M93.8478 18.4397L90.5319 16.9092L85.129 29.1429L79.7261 16.9092L76.4102 18.4397L83.1179 33.5005L76.4102 48.5613L79.7261 50.0918L85.129 37.8581L90.5319 50.0918L93.8478 48.5613L87.1401 33.5005L93.8478 18.4397Z" fill="#F0F0F0"/>
<path d="M87.3812 19.8825C86.0976 18.4807 85.1291 17.6748 85.1291 17.6748C85.1291 17.6748 84.1606 18.4806 82.877 19.8825V47.1191C84.1606 48.5212 85.1291 49.3271 85.1291 49.3271C85.1291 49.3271 86.0976 48.5213 87.3812 47.1192V19.8825Z" fill="#F0F0F0"/>
<path d="M79.042 25.1044V41.8948C80.3985 44.2983 82.0587 46.2684 83.3029 47.5745V19.4248C82.0587 20.7309 80.3984 22.701 79.042 25.1044Z" fill="#A2001D"/>
<path d="M91.217 25.1044C89.8604 22.7009 88.2003 20.7309 86.9561 19.4248V47.5745C88.2002 46.2684 89.8604 44.2983 91.217 41.8948V25.1044Z" fill="#A2001D"/>
<path d="M91.2158 25.104V41.8944C92.589 39.4609 93.6506 36.5833 93.6506 33.4993C93.6506 30.4153 92.589 27.5376 91.2158 25.104Z" fill="black"/>
<path d="M79.0422 25.104V41.8944C77.669 39.4609 76.6074 36.5833 76.6074 33.4993C76.6074 30.4153 77.669 27.5376 79.0422 25.104Z" fill="black"/>
</g>
</g>
<rect x="54.6289" y="3" width="61" height="61" rx="30.5" stroke="white" stroke-width="5"/>
<g clip-path="url(#clip6_1_8633)">
<rect x="83.1289" y="5.5" width="56" height="56" rx="28" fill="#EEEEEE"/>
<g clip-path="url(#clip7_1_8633)">
<path d="M131.997 52.1669C136.431 47.2131 139.129 40.6722 139.129 33.5003C139.129 26.3284 136.431 19.7874 131.997 14.8336L111.129 12.8047L90.261 14.8336C85.8266 19.7874 83.1289 26.3284 83.1289 33.5003C83.1289 40.6722 85.8265 47.2131 90.2609 52.1669L111.129 54.1959L131.997 52.1669Z" fill="#FFDA44"/>
<path d="M90.2617 14.8333H131.998C126.871 9.10566 119.422 5.5 111.13 5.5C102.838 5.5 95.3886 9.10566 90.2617 14.8333Z" fill="black"/>
<path d="M83.1289 33.4994L111.129 35.9342L139.129 33.4994C139.129 30.2265 138.566 27.0855 137.533 24.166H84.7245C83.6923 27.0855 83.1289 30.2265 83.1289 33.4994V33.4994Z" fill="#D80027"/>
<path d="M84.7245 42.8333H137.534C138.566 39.9139 139.129 36.7729 139.129 33.5H83.1289C83.1289 36.7729 83.6923 39.9139 84.7245 42.8333Z" fill="black"/>
<path d="M131.996 52.166H90.2598C95.3866 57.8938 102.836 61.4994 111.128 61.4994C119.42 61.4994 126.869 57.8938 131.996 52.166Z" fill="#D80027"/>
<path d="M120.472 33.5002C120.472 38.6608 116.289 42.8437 111.129 42.8437C105.968 42.8437 101.785 38.6608 101.785 33.5002C101.785 28.3396 105.968 24.1567 111.129 24.1567C116.289 24.1567 120.472 28.3396 120.472 33.5002Z" fill="#F0F0F0"/>
<path d="M114.552 33.9768L111.129 32.4936C111.129 32.4936 111.93 29.8354 111.972 29.6535C112.003 29.5206 112.02 29.3821 112.02 29.2396C112.02 28.7353 111.816 28.2788 111.485 27.9485L112.346 27.0877C111.795 26.537 111.034 26.1963 110.194 26.1963C109.353 26.1963 108.592 26.5369 108.042 27.0877L108.902 27.9485C108.572 28.2789 108.368 28.7354 108.368 29.2396C108.368 29.4241 108.396 29.6018 108.446 29.7697L107.15 31.0656H109.506C109.506 31.0656 108.532 32.5283 108 33.7296C107.469 34.9308 108.008 36.3972 109.236 36.9434L109.947 37.2591L111.129 38.3699V39.5873L109.911 40.8046H112.346V38.3698L113.457 37.2589H115.755C115.766 37.2361 115.777 37.2137 115.788 37.1903C116.334 35.9617 115.78 34.5228 114.552 33.9768Z" fill="black"/>
</g>
</g>
<rect x="80.6289" y="3" width="61" height="61" rx="30.5" stroke="white" stroke-width="5"/>
<g clip-path="url(#clip8_1_8633)">
<rect x="109.129" y="5.5" width="56" height="56" rx="28" fill="#EEEEEE"/>
<g clip-path="url(#clip9_1_8633)">
<path d="M137.129 61.5C152.593 61.5 165.129 48.964 165.129 33.5C165.129 18.036 152.593 5.5 137.129 5.5C121.665 5.5 109.129 18.036 109.129 33.5C109.129 48.964 121.665 61.5 137.129 61.5Z" fill="#F0F0F0"/>
<path d="M135.913 33.4997H165.13C165.13 30.9725 164.794 28.5242 164.166 26.1953H135.913V33.4997Z" fill="#D80027"/>
<path d="M135.913 18.8908H161.021C159.307 16.0939 157.115 13.6217 154.56 11.5864H135.913V18.8908Z" fill="#D80027"/>
<path d="M137.13 61.5C143.719 61.5 149.776 59.2224 154.559 55.4131H119.7C124.483 59.2224 130.54 61.5 137.13 61.5Z" fill="#D80027"/>
<path d="M113.24 48.1076H161.02C162.397 45.8623 163.464 43.4079 164.166 40.8032H110.095C110.797 43.4079 111.864 45.8623 113.24 48.1076Z" fill="#D80027"/>
<path d="M122.099 9.87259H124.651L122.277 11.5969L123.184 14.3869L120.81 12.6626L118.437 14.3869L119.22 11.9766C117.131 13.7173 115.299 15.7568 113.79 18.0291H114.607L113.096 19.1267C112.861 19.5194 112.635 19.9182 112.419 20.323L113.14 22.5435L111.794 21.5655C111.46 22.2744 111.154 22.9992 110.879 23.7392L111.674 26.1857H114.607L112.234 27.91L113.14 30.7L110.767 28.9757L109.345 30.0086C109.203 31.1525 109.129 32.3175 109.129 33.5H137.129C137.129 18.0361 137.129 16.2131 137.129 5.5C131.598 5.5 126.441 7.10453 122.099 9.87259ZM123.184 30.7L120.81 28.9757L118.437 30.7L119.344 27.91L116.97 26.1857H119.904L120.81 23.3956L121.717 26.1857H124.651L122.277 27.91L123.184 30.7ZM122.277 19.7534L123.184 22.5435L120.81 20.8192L118.437 22.5435L119.344 19.7534L116.97 18.0291H119.904L120.81 15.2391L121.717 18.0291H124.651L122.277 19.7534ZM133.227 30.7L130.854 28.9757L128.481 30.7L129.387 27.91L127.014 26.1857H129.947L130.854 23.3956L131.76 26.1857H134.694L132.321 27.91L133.227 30.7ZM132.321 19.7534L133.227 22.5435L130.854 20.8192L128.481 22.5435L129.387 19.7534L127.014 18.0291H129.947L130.854 15.2391L131.76 18.0291H134.694L132.321 19.7534ZM132.321 11.5969L133.227 14.3869L130.854 12.6626L128.481 14.3869L129.387 11.5969L127.014 9.87259H129.947L130.854 7.08255L131.76 9.87259H134.694L132.321 11.5969Z" fill="#0052B4"/>
</g>
</g>
<rect x="106.629" y="3" width="61" height="61" rx="30.5" stroke="white" stroke-width="5"/>
<defs>
<clipPath id="clip0_1_8633">
<rect x="5.12891" y="5.5" width="56" height="56" rx="28" fill="white"/>
</clipPath>
<clipPath id="clip1_1_8633">
<rect width="56" height="56" fill="white" transform="translate(5.12891 5.5)"/>
</clipPath>
<clipPath id="clip2_1_8633">
<rect x="31.1289" y="5.5" width="56" height="56" rx="28" fill="white"/>
</clipPath>
<clipPath id="clip3_1_8633">
<rect width="56" height="56" fill="white" transform="translate(31.1289 5.5)"/>
</clipPath>
<clipPath id="clip4_1_8633">
<rect x="57.1289" y="5.5" width="56" height="56" rx="28" fill="white"/>
</clipPath>
<clipPath id="clip5_1_8633">
<rect width="56" height="56" fill="white" transform="translate(57.1289 5.5)"/>
</clipPath>
<clipPath id="clip6_1_8633">
<rect x="83.1289" y="5.5" width="56" height="56" rx="28" fill="white"/>
</clipPath>
<clipPath id="clip7_1_8633">
<rect width="56" height="56" fill="white" transform="translate(83.1289 5.5)"/>
</clipPath>
<clipPath id="clip8_1_8633">
<rect x="109.129" y="5.5" width="56" height="56" rx="28" fill="white"/>
</clipPath>
<clipPath id="clip9_1_8633">
<rect width="56" height="56" fill="white" transform="translate(109.129 5.5)"/>
</clipPath>
</defs>
</svg>
